<svg width="34" height="27" viewBox="0 0 34 27" fill="none" xmlns="http://www.w3.org/2000/svg">
<path d="M13.375 26.6667C9.65278 26.6667 6.49306 25.375 3.89583 22.7917C1.29861 20.2083 0 17.0556 0 13.3333C0 9.61111 1.29861 6.45833 3.89583 3.875C6.49306 1.29167 9.65278 0 13.375 0H20.0833C23.8056 0 26.9653 1.29167 29.5625 3.875C32.1597 6.45833 33.4583 9.61111 33.4583 13.3333C33.4583 17.0556 32.1597 20.2083 29.5625 22.7917C26.9653 25.375 23.8056 26.6667 20.0833 26.6667H13.375ZM13.4167 23.3333H20.0417C22.8194 23.3333 25.1944 22.3611 27.1667 20.4167C29.1389 18.4722 30.125 16.1111 30.125 13.3333C30.125 10.5556 29.1389 8.19444 27.1667 6.25C25.1944 4.30556 22.8194 3.33333 20.0417 3.33333H13.4167C10.6389 3.33333 8.26389 4.30556 6.29167 6.25C4.31944 8.19444 3.33333 10.5556 3.33333 13.3333C3.33333 16.1111 4.31944 18.4722 6.29167 20.4167C8.26389 22.3611 10.6389 23.3333 13.4167 23.3333ZM14.375 16.125L10.8333 12.5833C10.5278 12.25 10.1458 12.0833 9.6875 12.0833C9.22917 12.0833 8.83333 12.25 8.5 12.5833C8.16667 12.9167 8 13.3125 8 13.7708C8 14.2292 8.16667 14.6111 8.5 14.9167L12.625 19.0417C13.125 19.5417 13.7222 19.7917 14.4167 19.7917C15.1111 19.7917 15.6944 19.5417 16.1667 19.0417L25 10.2083C25.3333 9.90278 25.5 9.51389 25.5 9.04167C25.5 8.56944 25.3333 8.18056 25 7.875C24.6667 7.54167 24.2708 7.375 23.8125 7.375C23.3542 7.375 22.9583 7.54167 22.625 7.875L14.375 16.125Z" fill="#958DA1"/>
</svg>
